<svg width="51" height="48" viewBox="0 0 51 48" fill="none" xmlns="http://www.w3.org/2000/svg">
<g clip-path="url(#clip0_333_10)">
<path d="M-0.196289 39.9091V0.239624H4.60741V19.9194H5.0723L22.8926 0.239624H29.1684L12.5103 18.1374L29.1684 39.9091H23.3574L9.56608 21.469L4.60741 27.0475V39.9091H-0.196289Z" fill="black"/>
<path d="M23.8037 39.9091V0.239624H37.6725C40.4359 0.239624 42.7151 0.717443 44.5101 1.67302C46.305 2.61568 47.6415 3.88763 48.5196 5.48886C49.3977 7.07717 49.8367 8.83986 49.8367 10.7768C49.8367 12.4814 49.5333 13.8889 48.9264 14.9995C48.3324 16.11 47.5447 16.9881 46.5633 17.6337C45.5948 18.2794 44.5424 18.7572 43.406 19.0671V19.4545C44.6198 19.532 45.8401 19.9581 47.0669 20.733C48.2936 21.5077 49.3202 22.6183 50.1465 24.0645C50.9729 25.5108 51.3864 27.2799 51.3864 29.3719C51.3864 31.3605 50.9342 33.149 50.0304 34.7373C49.1265 36.3256 47.6996 37.5847 45.7497 38.5144C43.7999 39.4442 41.2624 39.9091 38.1374 39.9091H23.8037ZM28.6074 35.6477H38.1374C41.2753 35.6477 43.5029 35.0408 44.82 33.8269C46.1501 32.6002 46.8151 31.1151 46.8151 29.3719C46.8151 28.0289 46.4729 26.7892 45.7885 25.6528C45.1041 24.5036 44.1291 23.5868 42.8636 22.9023C41.5981 22.205 40.1002 21.8564 38.3699 21.8564H28.6074V35.6477ZM28.6074 17.6725H37.5176C38.9639 17.6725 40.2681 17.3884 41.4303 16.8202C42.6054 16.252 43.5351 15.4514 44.2195 14.4183C44.9168 13.3853 45.2655 12.1714 45.2655 10.7768C45.2655 9.03355 44.6586 7.55499 43.4447 6.34114C42.2309 5.11441 40.3068 4.50099 37.6725 4.50099H28.6074V17.6725Z" fill="black"/>
<path d="M51 41H0V48.5H51V41Z" fill="black"/>
<path d="M5.37926 47V42.6364H6.30185V44.5604H6.35938L7.92969 42.6364H9.03551L7.41619 44.5902L9.05469 47H7.95099L6.75568 45.206L6.30185 45.7599V47H5.37926ZM10.0295 47.0554C9.88885 47.0554 9.76811 47.0057 9.66726 46.9062C9.56783 46.8054 9.51811 46.6847 9.51811 46.544C9.51811 46.4048 9.56783 46.2855 9.66726 46.1861C9.76811 46.0866 9.88885 46.0369 10.0295 46.0369C10.1658 46.0369 10.2852 46.0866 10.3874 46.1861C10.4897 46.2855 10.5408 46.4048 10.5408 46.544C10.5408 46.6378 10.5167 46.7237 10.4684 46.8018C10.4215 46.8786 10.3597 46.9403 10.283 46.9872C10.2063 47.0327 10.1218 47.0554 10.0295 47.0554ZM11.3031 47V42.6364H13.0502C13.3713 42.6364 13.639 42.6839 13.8535 42.7791C14.068 42.8743 14.2292 43.0064 14.3372 43.1754C14.4451 43.343 14.4991 43.5362 14.4991 43.755C14.4991 43.9254 14.465 44.0753 14.3968 44.2045C14.3287 44.3324 14.2349 44.4375 14.1156 44.5199C13.9977 44.6009 13.8627 44.6584 13.7108 44.6925V44.7351C13.877 44.7422 14.0325 44.7891 14.1774 44.8757C14.3237 44.9624 14.4423 45.0838 14.5332 45.2401C14.6241 45.3949 14.6696 45.5795 14.6696 45.794C14.6696 46.0256 14.612 46.2322 14.497 46.4141C14.3833 46.5945 14.215 46.7372 13.992 46.8423C13.769 46.9474 13.4941 47 13.1674 47H11.3031ZM12.2257 46.2457H12.9778C13.2349 46.2457 13.4224 46.1967 13.5403 46.0987C13.6582 45.9993 13.7172 45.8672 13.7172 45.7024C13.7172 45.5817 13.688 45.4751 13.6298 45.3828C13.5716 45.2905 13.4885 45.218 13.3805 45.1655C13.274 45.1129 13.1468 45.0866 12.9991 45.0866H12.2257V46.2457ZM12.2257 44.4624H12.9096C13.036 44.4624 13.1483 44.4403 13.2463 44.3963C13.3457 44.3509 13.4238 44.2869 13.4806 44.2045C13.5389 44.1222 13.568 44.0234 13.568 43.9084C13.568 43.7507 13.5119 43.6236 13.3997 43.527C13.2889 43.4304 13.1312 43.3821 12.9267 43.3821H12.2257V44.4624ZM19.2798 44.8182C19.2798 45.294 19.1896 45.6989 19.0092 46.0327C18.8303 46.3665 18.5859 46.6214 18.2763 46.7976C17.968 46.9723 17.6214 47.0597 17.2365 47.0597C16.8487 47.0597 16.5007 46.9716 16.1925 46.7955C15.8842 46.6193 15.6406 46.3643 15.4616 46.0305C15.2827 45.6967 15.1932 45.2926 15.1932 44.8182C15.1932 44.3423 15.2827 43.9375 15.4616 43.6037C15.6406 43.2699 15.8842 43.0156 16.1925 42.8409C16.5007 42.6648 16.8487 42.5767 17.2365 42.5767C17.6214 42.5767 17.968 42.6648 18.2763 42.8409C18.5859 43.0156 18.8303 43.2699 19.0092 43.6037C19.1896 43.9375 19.2798 44.3423 19.2798 44.8182ZM18.3445 44.8182C18.3445 44.5099 18.2983 44.25 18.206 44.0384C18.1151 43.8267 17.9865 43.6662 17.8203 43.5568C17.6541 43.4474 17.4595 43.3928 17.2365 43.3928C17.0135 43.3928 16.8189 43.4474 16.6527 43.5568C16.4865 43.6662 16.3572 43.8267 16.2649 44.0384C16.174 44.25 16.1286 44.5099 16.1286 44.8182C16.1286 45.1264 16.174 45.3864 16.2649 45.598C16.3572 45.8097 16.4865 45.9702 16.6527 46.0795C16.8189 46.1889 17.0135 46.2436 17.2365 46.2436C17.4595 46.2436 17.6541 46.1889 17.8203 46.0795C17.9865 45.9702 18.1151 45.8097 18.206 45.598C18.2983 45.3864 18.3445 45.1264 18.3445 44.8182ZM23.6131 42.6364V47H22.8162L20.9178 44.2536H20.8858V47H19.9632V42.6364H20.7729L22.6564 45.3807H22.6948V42.6364H23.6131ZM28.3853 44.8182C28.3853 45.294 28.2951 45.6989 28.1147 46.0327C27.9357 46.3665 27.6914 46.6214 27.3817 46.7976C27.0735 46.9723 26.7269 47.0597 26.342 47.0597C25.9542 47.0597 25.6062 46.9716 25.2979 46.7955C24.9897 46.6193 24.7461 46.3643 24.5671 46.0305C24.3881 45.6967 24.2987 45.2926 24.2987 44.8182C24.2987 44.3423 24.3881 43.9375 24.5671 43.6037C24.7461 43.2699 24.9897 43.0156 25.2979 42.8409C25.6062 42.6648 25.9542 42.5767 26.342 42.5767C26.7269 42.5767 27.0735 42.6648 27.3817 42.8409C27.6914 43.0156 27.9357 43.2699 28.1147 43.6037C28.2951 43.9375 28.3853 44.3423 28.3853 44.8182ZM27.4499 44.8182C27.4499 44.5099 27.4038 44.25 27.3114 44.0384C27.2205 43.8267 27.092 43.6662 26.9258 43.5568C26.7596 43.4474 26.565 43.3928 26.342 43.3928C26.119 43.3928 25.9244 43.4474 25.7582 43.5568C25.592 43.6662 25.4627 43.8267 25.3704 44.0384C25.2795 44.25 25.234 44.5099 25.234 44.8182C25.234 45.1264 25.2795 45.3864 25.3704 45.598C25.4627 45.8097 25.592 45.9702 25.7582 46.0795C25.9244 46.1889 26.119 46.2436 26.342 46.2436C26.565 46.2436 26.7596 46.1889 26.9258 46.0795C27.092 45.9702 27.2205 45.8097 27.3114 45.598C27.4038 45.3864 27.4499 45.1264 27.4499 44.8182ZM29.8869 47L28.6383 42.6364H29.6461L30.3684 45.6683H30.4047L31.2015 42.6364H32.0645L32.8592 45.6747H32.8975L33.6199 42.6364H34.6277L33.3791 47H32.4799L31.649 44.147H31.6149L30.786 47H29.8869ZM36.044 42.6364V47H35.1214V42.6364H36.044ZM40.6532 44.1641H39.72C39.7029 44.0433 39.6681 43.9361 39.6156 43.8423C39.563 43.7472 39.4956 43.6662 39.4132 43.5994C39.3308 43.5327 39.2356 43.4815 39.1277 43.446C39.0211 43.4105 38.9054 43.3928 38.7804 43.3928C38.5545 43.3928 38.3578 43.4489 38.1902 43.5611C38.0225 43.6719 37.8926 43.8338 37.8002 44.0469C37.7079 44.2585 37.6618 44.5156 37.6618 44.8182C37.6618 45.1293 37.7079 45.3906 37.8002 45.6023C37.894 45.8139 38.0247 45.9737 38.1923 46.0817C38.3599 46.1896 38.5538 46.2436 38.774 46.2436C38.8975 46.2436 39.0119 46.2273 39.117 46.1946C39.2235 46.1619 39.318 46.1143 39.4004 46.0518C39.4828 45.9879 39.551 45.9105 39.6049 45.8196C39.6603 45.7287 39.6987 45.625 39.72 45.5085L40.6532 45.5128C40.6291 45.7131 40.5687 45.9062 40.4721 46.0923C40.377 46.277 40.2484 46.4425 40.0865 46.5888C39.926 46.7337 39.7342 46.8487 39.5112 46.9339C39.2896 47.0178 39.0389 47.0597 38.7591 47.0597C38.3699 47.0597 38.0218 46.9716 37.715 46.7955C37.4096 46.6193 37.1681 46.3643 36.9906 46.0305C36.8145 45.6967 36.7264 45.2926 36.7264 44.8182C36.7264 44.3423 36.8159 43.9375 36.9949 43.6037C37.1738 43.2699 37.4167 43.0156 37.7235 42.8409C38.0304 42.6648 38.3755 42.5767 38.7591 42.5767C39.0119 42.5767 39.2463 42.6122 39.4622 42.6832C39.6795 42.7543 39.872 42.858 40.0396 42.9943C40.2072 43.1293 40.3436 43.2947 40.4487 43.4908C40.5552 43.6868 40.6234 43.9112 40.6532 44.1641ZM41.2679 47V46.4524L43.4455 43.397H41.2637V42.6364H44.6046V43.1839L42.4249 46.2393H44.6088V47H41.2679Z" fill="#F2E5E2"/>
</g>
<defs>
<clipPath id="clip0_333_10">
<rect width="51" height="48" fill="white"/>
</clipPath>
</defs>
</svg>
