<svg width="60" height="57" viewBox="0 0 60 57" fill="none" xmlns="http://www.w3.org/2000/svg">
<path d="M4.80371 43.9091V4.23962H9.60741V23.9194H10.0723L27.8926 4.23962H34.1684L17.5103 22.1374L34.1684 43.9091H28.3574L14.5661 25.469L9.60741 31.0475V43.9091H4.80371Z" fill="black"/>
<path d="M28.8037 43.9091V4.23962H42.6725C45.4359 4.23962 47.7151 4.71744 49.5101 5.67302C51.305 6.61568 52.6415 7.88763 53.5196 9.48886C54.3977 11.0772 54.8367 12.8399 54.8367 14.7768C54.8367 16.4814 54.5333 17.8889 53.9264 18.9995C53.3324 20.11 52.5447 20.9881 51.5633 21.6337C50.5948 22.2794 49.5424 22.7572 48.406 23.0671V23.4545C49.6198 23.532 50.8401 23.9581 52.0669 24.733C53.2936 25.5077 54.3202 26.6183 55.1465 28.0645C55.9729 29.5108 56.3864 31.2799 56.3864 33.3719C56.3864 35.3605 55.9342 37.149 55.0304 38.7373C54.1265 40.3256 52.6996 41.5847 50.7497 42.5145C48.7999 43.4442 46.2624 43.9091 43.1374 43.9091H28.8037ZM33.6074 39.6477H43.1374C46.2753 39.6477 48.5029 39.0408 49.82 37.8269C51.1501 36.6002 51.8151 35.1151 51.8151 33.3719C51.8151 32.0289 51.4729 30.7892 50.7885 29.6528C50.1041 28.5036 49.1291 27.5868 47.8636 26.9023C46.5981 26.205 45.1002 25.8564 43.3699 25.8564H33.6074V39.6477ZM33.6074 21.6725H42.5176C43.9639 21.6725 45.2681 21.3884 46.4303 20.8202C47.6054 20.252 48.5351 19.4514 49.2195 18.4183C49.9168 17.3853 50.2655 16.1714 50.2655 14.7768C50.2655 13.0336 49.6586 11.555 48.4447 10.3411C47.2309 9.11441 45.3068 8.50099 42.6725 8.50099H33.6074V21.6725Z" fill="black"/>
<path d="M56 45H5V52.5H56V45Z" fill="black"/>
<path d="M10.3793 51V46.6364H11.3018V48.5604H11.3594L12.9297 46.6364H14.0355L12.4162 48.5902L14.0547 51H12.951L11.7557 49.206L11.3018 49.7599V51H10.3793ZM15.0295 51.0554C14.8888 51.0554 14.7681 51.0057 14.6673 50.9062C14.5678 50.8054 14.5181 50.6847 14.5181 50.544C14.5181 50.4048 14.5678 50.2855 14.6673 50.1861C14.7681 50.0866 14.8888 50.0369 15.0295 50.0369C15.1658 50.0369 15.2852 50.0866 15.3874 50.1861C15.4897 50.2855 15.5408 50.4048 15.5408 50.544C15.5408 50.6378 15.5167 50.7237 15.4684 50.8018C15.4215 50.8786 15.3597 50.9403 15.283 50.9872C15.2063 51.0327 15.1218 51.0554 15.0295 51.0554ZM16.3031 51V46.6364H18.0502C18.3713 46.6364 18.639 46.6839 18.8535 46.7791C19.068 46.8743 19.2292 47.0064 19.3372 47.1754C19.4451 47.343 19.4991 47.5362 19.4991 47.755C19.4991 47.9254 19.465 48.0753 19.3968 48.2045C19.3287 48.3324 19.2349 48.4375 19.1156 48.5199C18.9977 48.6009 18.8627 48.6584 18.7108 48.6925V48.7351C18.877 48.7422 19.0325 48.7891 19.1774 48.8757C19.3237 48.9624 19.4423 49.0838 19.5332 49.2401C19.6241 49.3949 19.6696 49.5795 19.6696 49.794C19.6696 50.0256 19.612 50.2322 19.497 50.4141C19.3833 50.5945 19.215 50.7372 18.992 50.8423C18.769 50.9474 18.4941 51 18.1674 51H16.3031ZM17.2257 50.2457H17.9778C18.2349 50.2457 18.4224 50.1967 18.5403 50.0987C18.6582 49.9993 18.7172 49.8672 18.7172 49.7024C18.7172 49.5817 18.688 49.4751 18.6298 49.3828C18.5716 49.2905 18.4885 49.218 18.3805 49.1655C18.274 49.1129 18.1468 49.0866 17.9991 49.0866H17.2257V50.2457ZM17.2257 48.4624H17.9096C18.036 48.4624 18.1483 48.4403 18.2463 48.3963C18.3457 48.3509 18.4238 48.2869 18.4806 48.2045C18.5389 48.1222 18.568 48.0234 18.568 47.9084C18.568 47.7507 18.5119 47.6236 18.3997 47.527C18.2889 47.4304 18.1312 47.3821 17.9267 47.3821H17.2257V48.4624ZM24.2798 48.8182C24.2798 49.294 24.1896 49.6989 24.0092 50.0327C23.8303 50.3665 23.5859 50.6214 23.2763 50.7976C22.968 50.9723 22.6214 51.0597 22.2365 51.0597C21.8487 51.0597 21.5007 50.9716 21.1925 50.7955C20.8842 50.6193 20.6406 50.3643 20.4616 50.0305C20.2827 49.6967 20.1932 49.2926 20.1932 48.8182C20.1932 48.3423 20.2827 47.9375 20.4616 47.6037C20.6406 47.2699 20.8842 47.0156 21.1925 46.8409C21.5007 46.6648 21.8487 46.5767 22.2365 46.5767C22.6214 46.5767 22.968 46.6648 23.2763 46.8409C23.5859 47.0156 23.8303 47.2699 24.0092 47.6037C24.1896 47.9375 24.2798 48.3423 24.2798 48.8182ZM23.3445 48.8182C23.3445 48.5099 23.2983 48.25 23.206 48.0384C23.1151 47.8267 22.9865 47.6662 22.8203 47.5568C22.6541 47.4474 22.4595 47.3928 22.2365 47.3928C22.0135 47.3928 21.8189 47.4474 21.6527 47.5568C21.4865 47.6662 21.3572 47.8267 21.2649 48.0384C21.174 48.25 21.1286 48.5099 21.1286 48.8182C21.1286 49.1264 21.174 49.3864 21.2649 49.598C21.3572 49.8097 21.4865 49.9702 21.6527 50.0795C21.8189 50.1889 22.0135 50.2436 22.2365 50.2436C22.4595 50.2436 22.6541 50.1889 22.8203 50.0795C22.9865 49.9702 23.1151 49.8097 23.206 49.598C23.2983 49.3864 23.3445 49.1264 23.3445 48.8182ZM28.6131 46.6364V51H27.8162L25.9178 48.2536H25.8858V51H24.9632V46.6364H25.7729L27.6564 49.3807H27.6948V46.6364H28.6131ZM33.3853 48.8182C33.3853 49.294 33.2951 49.6989 33.1147 50.0327C32.9357 50.3665 32.6914 50.6214 32.3817 50.7976C32.0735 50.9723 31.7269 51.0597 31.342 51.0597C30.9542 51.0597 30.6062 50.9716 30.2979 50.7955C29.9897 50.6193 29.7461 50.3643 29.5671 50.0305C29.3881 49.6967 29.2987 49.2926 29.2987 48.8182C29.2987 48.3423 29.3881 47.9375 29.5671 47.6037C29.7461 47.2699 29.9897 47.0156 30.2979 46.8409C30.6062 46.6648 30.9542 46.5767 31.342 46.5767C31.7269 46.5767 32.0735 46.6648 32.3817 46.8409C32.6914 47.0156 32.9357 47.2699 33.1147 47.6037C33.2951 47.9375 33.3853 48.3423 33.3853 48.8182ZM32.4499 48.8182C32.4499 48.5099 32.4038 48.25 32.3114 48.0384C32.2205 47.8267 32.092 47.6662 31.9258 47.5568C31.7596 47.4474 31.565 47.3928 31.342 47.3928C31.119 47.3928 30.9244 47.4474 30.7582 47.5568C30.592 47.6662 30.4627 47.8267 30.3704 48.0384C30.2795 48.25 30.234 48.5099 30.234 48.8182C30.234 49.1264 30.2795 49.3864 30.3704 49.598C30.4627 49.8097 30.592 49.9702 30.7582 50.0795C30.9244 50.1889 31.119 50.2436 31.342 50.2436C31.565 50.2436 31.7596 50.1889 31.9258 50.0795C32.092 49.9702 32.2205 49.8097 32.3114 49.598C32.4038 49.3864 32.4499 49.1264 32.4499 48.8182ZM34.8869 51L33.6383 46.6364H34.6461L35.3684 49.6683H35.4047L36.2015 46.6364H37.0645L37.8592 49.6747H37.8975L38.6199 46.6364H39.6277L38.3791 51H37.4799L36.649 48.147H36.6149L35.786 51H34.8869ZM41.044 46.6364V51H40.1214V46.6364H41.044ZM45.6532 48.1641H44.72C44.7029 48.0433 44.6681 47.9361 44.6156 47.8423C44.563 47.7472 44.4956 47.6662 44.4132 47.5994C44.3308 47.5327 44.2356 47.4815 44.1277 47.446C44.0211 47.4105 43.9054 47.3928 43.7804 47.3928C43.5545 47.3928 43.3578 47.4489 43.1902 47.5611C43.0225 47.6719 42.8926 47.8338 42.8002 48.0469C42.7079 48.2585 42.6618 48.5156 42.6618 48.8182C42.6618 49.1293 42.7079 49.3906 42.8002 49.6023C42.894 49.8139 43.0247 49.9737 43.1923 50.0817C43.3599 50.1896 43.5538 50.2436 43.774 50.2436C43.8975 50.2436 44.0119 50.2273 44.117 50.1946C44.2235 50.1619 44.318 50.1143 44.4004 50.0518C44.4828 49.9879 44.551 49.9105 44.6049 49.8196C44.6603 49.7287 44.6987 49.625 44.72 49.5085L45.6532 49.5128C45.6291 49.7131 45.5687 49.9062 45.4721 50.0923C45.377 50.277 45.2484 50.4425 45.0865 50.5888C44.926 50.7337 44.7342 50.8487 44.5112 50.9339C44.2896 51.0178 44.0389 51.0597 43.7591 51.0597C43.3699 51.0597 43.0218 50.9716 42.715 50.7955C42.4096 50.6193 42.1681 50.3643 41.9906 50.0305C41.8145 49.6967 41.7264 49.2926 41.7264 48.8182C41.7264 48.3423 41.8159 47.9375 41.9949 47.6037C42.1738 47.2699 42.4167 47.0156 42.7235 46.8409C43.0304 46.6648 43.3755 46.5767 43.7591 46.5767C44.0119 46.5767 44.2463 46.6122 44.4622 46.6832C44.6795 46.7543 44.872 46.858 45.0396 46.9943C45.2072 47.1293 45.3436 47.2947 45.4487 47.4908C45.5552 47.6868 45.6234 47.9112 45.6532 48.1641ZM46.2679 51V50.4524L48.4455 47.397H46.2637V46.6364H49.6046V47.1839L47.4249 50.2393H49.6088V51H46.2679Z" fill="#F2E5E2"/>
</svg>
